<svg xmlns="http://www.w3.org/2000/svg" viewBox="0 0 1024 1024">
  <defs>
    <linearGradient id="bg" x1="144" y1="96" x2="880" y2="928" gradientUnits="userSpaceOnUse">
      <stop offset="0" stop-color="#10231f"/>
      <stop offset="0.52" stop-color="#182b3a"/>
      <stop offset="1" stop-color="#23322b"/>
    </linearGradient>
    <linearGradient id="mark" x1="210" y1="218" x2="814" y2="806" gradientUnits="userSpaceOnUse">
      <stop offset="0" stop-color="#f5f1df"/>
      <stop offset="0.52" stop-color="#d9f0ea"/>
      <stop offset="1" stop-color="#85d6c8"/>
    </linearGradient>
    <filter id="shadow" x="-20%" y="-20%" width="140%" height="140%">
      <feDropShadow dx="0" dy="22" stdDeviation="24" flood-color="#06100f" flood-opacity="0.38"/>
    </filter>
  </defs>
  <rect width="1024" height="1024" rx="220" fill="url(#bg)"/>
  <g opacity="0.16" stroke="#d9f0ea" stroke-width="3">
    <path d="M176 240h672M176 368h672M176 496h672M176 624h672M176 752h672"/>
    <path d="M240 176v672M368 176v672M496 176v672M624 176v672M752 176v672"/>
  </g>
  <g filter="url(#shadow)">
    <path d="M188 514h148" stroke="#85d6c8" stroke-width="42" stroke-linecap="round"/>
    <path d="M688 514h148" stroke="#85d6c8" stroke-width="42" stroke-linecap="round"/>
    <path d="M298 436v156M726 436v156" stroke="#f5f1df" stroke-width="44" stroke-linecap="round"/>
    <path d="M332 514h360" stroke="#f5f1df" stroke-width="34" stroke-linecap="round"/>
    <path
      d="M279 326l112 372 121-278 121 278 112-372"
      fill="none"
      stroke="url(#mark)"
      stroke-width="72"
      stroke-linecap="round"
      stroke-linejoin="round"
    />
    <path
      d="M324 746c78-44 143-66 195-66 74 0 127 44 181 44 35 0 68-14 100-43"
      fill="none"
      stroke="#d8b45f"
      stroke-width="32"
      stroke-linecap="round"
      stroke-linejoin="round"
    />
  </g>
  <circle cx="512" cy="512" r="356" fill="none" stroke="#f5f1df" stroke-width="10" opacity="0.22"/>
  <circle cx="512" cy="512" r="292" fill="none" stroke="#85d6c8" stroke-width="5" opacity="0.16"/>
</svg>
